<svg width="999" height="480" viewBox="0 0 999 480" fill="none" xmlns="http://www.w3.org/2000/svg">
<g clip-path="url(#clip0_1_45)">
<path d="M883.503 476.518L886.905 413.236C886.905 413.236 998.5 390.1 998.5 323.415C998.5 256.731 816.137 248.565 797.765 279.186C797.581 279.492 797.399 279.798 797.217 280.104C774.525 318.374 787.337 368.06 825.952 390.161C839.156 397.718 854.899 404.185 873.296 407.792L872 475.018" fill="#7AFF97"/>
<path d="M780 131.018C814.794 131.018 843 102.812 843 68.0183C843 33.2243 814.794 5.01826 780 5.01826C745.206 5.01826 717 33.2243 717 68.0183C717 102.812 745.206 131.018 780 131.018Z" fill="#FF6884"/>
<path d="M687.058 461.517L616.005 456.988L612.174 137.487C612.081 129.732 615.173 122.138 620.657 116.654L696.778 40.5333C707.433 29.8785 724.205 29.1085 735.791 38.7467L818.398 107.465C825.138 113.071 828.944 121.314 828.84 130.079L826.002 370.36L861.906 420.226L861.982 420.332L868.065 473.055L687.058 461.517Z" fill="#E6E6E6"/>
<path d="M699 114.926V100.11C699 96.1998 702.181 93.0182 706.092 93.0182H726.908C730.819 93.0182 734 96.1998 734 100.11V114.926C734 118.837 730.819 122.018 726.908 122.018H706.092C702.181 122.018 699 118.837 699 114.926Z" fill="#2563EB"/>
<path d="M655 229.926V175.11C655 171.2 658.181 168.018 662.092 168.018H692.908C696.819 168.018 700 171.2 700 175.11V229.926C700 233.837 696.819 237.018 692.908 237.018H662.092C658.181 237.018 655 233.837 655 229.926Z" fill="#3F3D56"/>
<path d="M724.656 358.237C720.932 358.105 717.928 355.083 717.818 351.357L716.26 298.376C716.194 296.114 717.173 294.012 718.946 292.607C720.719 291.203 722.99 290.734 725.177 291.314L726.735 291.73C729.835 292.557 732 295.375 732 298.583V351.149C732 353.09 731.23 354.903 729.833 356.252C728.498 357.541 726.761 358.241 724.915 358.241C724.829 358.241 724.743 358.24 724.656 358.237Z" fill="#3F3D56"/>
<path d="M630.166 356.252C628.769 354.903 628 353.09 628 351.149V298.583C628 295.375 630.165 292.557 633.265 291.73L634.823 291.314C637.011 290.734 639.281 291.203 641.054 292.607C642.827 294.011 643.806 296.114 643.74 298.376L642.181 351.357C642.072 355.083 639.068 358.105 635.343 358.237C635.257 358.24 635.171 358.241 635.085 358.241C633.24 358.241 631.501 357.54 630.166 356.252Z" fill="#3F3D56"/>
<path d="M660 350.926V295.952C660 292.071 663.039 288.957 666.919 288.861L694.927 288.178C698.81 288.125 702.076 291.171 702.19 295.063L703.804 350.72C703.859 352.653 703.148 354.481 701.801 355.868C700.454 357.255 698.647 358.018 696.714 358.018H667.092C663.181 358.018 660 354.837 660 350.926Z" fill="#3F3D56"/>
<path d="M825.548 388.492L847.5 427.518L850.02 471.408L867.5 472.518L861.5 420.518L825.5 370.518C822.393 376.111 822.411 382.915 825.548 388.492Z" fill="#CCCCCC"/>
<path d="M849.318 458.846L778.069 459.821L778.083 460.821L849.332 459.846L849.318 458.846Z" fill="#3F3D56"/>
<path d="M844.996 450.021L777.441 450.549L777.449 451.549L845.004 451.021L844.996 450.021Z" fill="#3F3D56"/>
<path d="M841.49 441.002L776.87 442.264L776.89 443.264L841.509 442.002L841.49 441.002Z" fill="#3F3D56"/>
<path d="M839.484 432.033L777.428 434.094L777.461 435.094L839.517 433.033L839.484 432.033Z" fill="#3F3D56"/>
<path d="M836.483 424.047L776.861 426.143L776.896 427.143L836.518 425.047L836.483 424.047Z" fill="#3F3D56"/>
<path d="M832.5 417.019H774.429V418.019H832.5V417.019Z" fill="#3F3D56"/>
<path d="M829.494 410.001L773.058 410.663L773.069 411.663L829.505 411.001L829.494 410.001Z" fill="#3F3D56"/>
<path d="M826.483 403.007L771.797 404.823L771.83 405.823L826.516 404.007L826.483 403.007Z" fill="#3F3D56"/>
<path d="M824.492 396.044L770.491 396.993L770.508 397.993L824.509 397.044L824.492 396.044Z" fill="#3F3D56"/>
<path d="M820.484 389.118L768.778 390.734L768.809 391.734L820.515 390.118L820.484 389.118Z" fill="#3F3D56"/>
<path d="M818.495 383.018L767.245 383.519L767.255 384.519L818.505 384.018L818.495 383.018Z" fill="#3F3D56"/>
<path d="M763.5 362.426V294.611C763.5 290.7 766.681 287.518 770.592 287.518H803.408C807.319 287.518 810.5 290.7 810.5 294.611V362.426C810.5 366.337 807.319 369.518 803.408 369.518H770.592C766.681 369.518 763.5 366.337 763.5 362.426Z" fill="#2563EB"/>
<path d="M687.058 461.517L628.968 457.817L628.5 457.787V412.83C628.5 407.144 633.125 402.518 638.811 402.518H696.189C701.874 402.518 706.5 407.144 706.5 412.83V461.518H706L687.058 461.517Z" fill="#CCCCCC"/>
<path d="M767.5 239.426V187.61C767.5 183.7 770.681 180.518 774.592 180.518H785.408C789.319 180.518 792.5 183.7 792.5 187.61V239.426C792.5 243.337 789.319 246.518 785.408 246.518H774.592C770.681 246.518 767.5 243.337 767.5 239.426Z" fill="#3F3D56"/>
<path d="M778.5 466.518L775.5 422.518L766.5 380.518L764 369.018C758.863 365.525 751.945 369.411 752.255 375.616L752.5 380.518L761.5 422.518L764.5 466.518" fill="#CCCCCC"/>
<path d="M438.057 445.517L367.006 440.988L363.174 121.487C363.081 113.732 366.173 106.138 371.657 100.654L447.778 24.5333C458.433 13.8771 475.205 13.109 486.791 22.7467L569.398 91.465C576.138 97.0709 579.944 105.314 579.84 114.079L577.002 354.36L612.906 404.226L612.982 404.332L619.065 457.055L438.057 445.517Z" fill="#E6E6E6"/>
<path d="M450 98.9259V84.1105C450 80.1998 453.181 77.0182 457.093 77.0182H477.908C481.819 77.0182 485 80.1998 485 84.1105V98.9259C485 102.837 481.819 106.018 477.908 106.018H457.093C453.181 106.018 450 102.837 450 98.9259Z" fill="#2563EB"/>
<path d="M406 213.926V159.11C406 155.2 409.181 152.018 413.093 152.018H443.908C447.818 152.018 451 155.2 451 159.11V213.926C451 217.837 447.818 221.018 443.908 221.018H413.093C409.181 221.018 406 217.837 406 213.926Z" fill="#3F3D56"/>
<path d="M470.567 277.391C469.044 278.597 468.203 280.404 468.261 282.346L469.818 335.328C469.913 338.528 472.493 341.124 475.692 341.237C477.374 341.304 478.939 340.69 480.138 339.532C481.339 338.374 482 336.817 482 335.149V282.583C482 279.827 480.14 277.407 477.477 276.697L475.919 276.281C475.391 276.14 474.858 276.071 474.33 276.071C472.978 276.071 471.663 276.524 470.567 277.391Z" fill="#3F3D56"/>
<path d="M381.166 340.252C379.769 338.903 379 337.09 379 335.149V282.583C379 279.375 381.165 276.557 384.264 275.73L385.823 275.314C388.007 274.734 390.28 275.203 392.053 276.607C393.828 278.012 394.806 280.115 394.74 282.376L393.181 335.357C393.072 339.083 390.069 342.105 386.344 342.237C386.258 342.24 386.171 342.241 386.085 342.241C384.24 342.241 382.502 341.54 381.166 340.252Z" fill="#3F3D56"/>
<path d="M411 334.926V279.952C411 276.071 414.039 272.957 417.92 272.861L445.928 272.178C445.987 272.177 446.045 272.176 446.103 272.176C449.917 272.176 453.079 275.23 453.19 279.063L454.803 334.72C454.859 336.653 454.148 338.481 452.801 339.868C451.454 341.255 449.647 342.018 447.714 342.018H418.093C414.181 342.018 411 338.837 411 334.926Z" fill="#3F3D56"/>
<path d="M576.548 372.492L598.5 411.518L601.02 455.408L618.5 456.518L612.5 404.518L576.5 354.518C573.393 360.111 573.411 366.915 576.548 372.492Z" fill="#CCCCCC"/>
<path d="M600.318 442.846L529.069 443.821L529.083 444.821L600.332 443.846L600.318 442.846Z" fill="#3F3D56"/>
<path d="M595.996 434.021L528.441 434.549L528.449 435.549L596.004 435.021L595.996 434.021Z" fill="#3F3D56"/>
<path d="M592.49 425.002L527.87 426.264L527.89 427.264L592.509 426.002L592.49 425.002Z" fill="#3F3D56"/>
<path d="M590.484 416.033L528.428 418.094L528.461 419.094L590.517 417.033L590.484 416.033Z" fill="#3F3D56"/>
<path d="M587.483 408.047L527.861 410.143L527.896 411.143L587.518 409.047L587.483 408.047Z" fill="#3F3D56"/>
<path d="M583.5 401.019H525.429V402.019H583.5V401.019Z" fill="#3F3D56"/>
<path d="M580.494 394.001L524.058 394.663L524.069 395.663L580.505 395.001L580.494 394.001Z" fill="#3F3D56"/>
<path d="M577.483 387.007L522.797 388.823L522.83 389.823L577.516 388.007L577.483 387.007Z" fill="#3F3D56"/>
<path d="M575.491 380.044L521.491 380.993L521.508 381.993L575.509 381.044L575.491 380.044Z" fill="#3F3D56"/>
<path d="M571.484 373.118L519.778 374.734L519.809 375.734L571.515 374.118L571.484 373.118Z" fill="#3F3D56"/>
<path d="M569.495 367.018L518.245 367.519L518.255 368.519L569.505 368.018L569.495 367.018Z" fill="#3F3D56"/>
<path d="M514.5 346.426V278.611C514.5 274.7 517.681 271.518 521.592 271.518H554.408C558.319 271.518 561.5 274.7 561.5 278.611V346.426C561.5 350.337 558.319 353.518 554.408 353.518H521.592C517.681 353.518 514.5 350.337 514.5 346.426Z" fill="#2563EB"/>
<path d="M438.057 445.517L379.968 441.817L379.5 441.787V396.83C379.5 391.144 384.126 386.518 389.811 386.518H447.189C452.875 386.518 457.5 391.144 457.5 396.83V445.518H457L438.057 445.517Z" fill="#CCCCCC"/>
<path d="M518.5 223.426V171.61C518.5 167.7 521.681 164.518 525.592 164.518H536.408C540.319 164.518 543.5 167.7 543.5 171.61V223.426C543.5 227.337 540.319 230.518 536.408 230.518H525.592C521.681 230.518 518.5 227.337 518.5 223.426Z" fill="#3F3D56"/>
<path d="M529.5 450.518L526.5 406.518L517.5 364.518L515 353.018C509.863 349.525 502.945 353.411 503.255 359.616L503.5 364.518L512.5 406.518L515.5 450.518" fill="#CCCCCC"/>
<path d="M189.057 429.517L118.006 424.988L114.174 105.487C114.081 97.732 117.173 90.1383 122.657 84.6539L198.778 8.53331C209.433 -2.12245 226.206 -2.89052 237.79 6.74669L320.398 75.465C327.137 81.0709 330.943 89.3136 330.84 98.0792L328.002 338.36L363.906 388.226L363.981 388.332L370.065 441.055L189.057 429.517Z" fill="#E6E6E6"/>
<path d="M201 82.9259V68.1105C201 64.1998 204.181 61.0182 208.093 61.0182H228.908C232.818 61.0182 236 64.1998 236 68.1105V82.9259C236 86.8365 232.818 90.0182 228.908 90.0182H208.093C204.181 90.0182 201 86.8365 201 82.9259Z" fill="#2563EB"/>
<path d="M157 197.926V143.11C157 139.2 160.181 136.018 164.093 136.018H194.908C198.818 136.018 202 139.2 202 143.11V197.926C202 201.837 198.818 205.018 194.908 205.018H164.093C160.181 205.018 157 201.837 157 197.926Z" fill="#3F3D56"/>
<path d="M226.657 326.237C222.932 326.105 219.928 323.083 219.818 319.357L218.26 266.376C218.194 264.114 219.173 262.011 220.946 260.607C222.719 259.203 224.99 258.733 227.177 259.314L228.735 259.73C231.835 260.557 234 263.375 234 266.583V319.149C234 321.09 233.23 322.903 231.834 324.252C230.498 325.541 228.761 326.241 226.916 326.241C226.83 326.241 226.743 326.24 226.657 326.237Z" fill="#3F3D56"/>
<path d="M135.394 260.213L136.952 259.798C141.215 258.661 145.37 261.951 145.24 266.361L143.682 319.343C143.579 322.816 140.799 325.614 137.326 325.737C133.596 325.869 130.5 322.881 130.5 319.149V266.583C130.5 263.596 132.508 260.983 135.394 260.213Z" fill="#3F3D56"/>
<path d="M162 318.926V263.952C162 260.071 165.039 256.957 168.92 256.861L196.927 256.178C200.83 256.116 204.077 259.171 204.19 263.063L205.803 318.72C205.859 320.653 205.148 322.481 203.801 323.868C202.454 325.255 200.647 326.018 198.714 326.018H169.093C165.181 326.018 162 322.837 162 318.926Z" fill="#3F3D56"/>
<path d="M327.548 356.492L349.5 395.518L352.02 439.408L369.5 440.518L363.5 388.518L327.5 338.518C324.393 344.111 324.411 350.915 327.548 356.492Z" fill="#CCCCCC"/>
<path d="M351.318 426.846L280.069 427.821L280.083 428.821L351.332 427.846L351.318 426.846Z" fill="#3F3D56"/>
<path d="M346.996 418.021L279.441 418.549L279.449 419.549L347.004 419.021L346.996 418.021Z" fill="#3F3D56"/>
<path d="M343.49 409.002L278.87 410.264L278.89 411.264L343.509 410.002L343.49 409.002Z" fill="#3F3D56"/>
<path d="M341.484 400.033L279.428 402.094L279.461 403.094L341.517 401.033L341.484 400.033Z" fill="#3F3D56"/>
<path d="M338.483 392.047L278.861 394.143L278.896 395.143L338.518 393.047L338.483 392.047Z" fill="#3F3D56"/>
<path d="M334.5 385.019H276.429V386.019H334.5V385.019Z" fill="#3F3D56"/>
<path d="M331.494 378.001L275.058 378.663L275.069 379.663L331.505 379.001L331.494 378.001Z" fill="#3F3D56"/>
<path d="M328.483 371.007L273.797 372.823L273.83 373.823L328.516 372.007L328.483 371.007Z" fill="#3F3D56"/>
<path d="M326.492 364.044L272.491 364.993L272.508 365.993L326.509 365.044L326.492 364.044Z" fill="#3F3D56"/>
<path d="M322.484 357.118L270.778 358.734L270.809 359.734L322.515 358.118L322.484 357.118Z" fill="#3F3D56"/>
<path d="M320.495 351.018L269.245 351.519L269.255 352.519L320.505 352.018L320.495 351.018Z" fill="#3F3D56"/>
<path d="M265.5 330.426V262.611C265.5 258.7 268.681 255.518 272.593 255.518H305.408C309.318 255.518 312.5 258.7 312.5 262.611V330.426C312.5 334.337 309.318 337.518 305.408 337.518H272.593C268.681 337.518 265.5 334.337 265.5 330.426Z" fill="#2563EB"/>
<path d="M189.057 429.517L130.968 425.817L130.5 425.787V380.83C130.5 375.144 135.126 370.518 140.811 370.518H198.189C203.875 370.518 208.5 375.144 208.5 380.83V429.518H208L189.057 429.517Z" fill="#CCCCCC"/>
<path d="M269.5 207.426V155.61C269.5 151.7 272.681 148.518 276.593 148.518H287.408C291.318 148.518 294.5 151.7 294.5 155.61V207.426C294.5 211.337 291.318 214.518 287.408 214.518H276.593C272.681 214.518 269.5 211.337 269.5 207.426Z" fill="#3F3D56"/>
<path d="M280.5 434.518L277.5 390.518L268.5 348.518L266 337.018C260.863 333.525 253.945 337.411 254.255 343.616L254.5 348.518L263.5 390.518L266.5 434.518" fill="#CCCCCC"/>
<path d="M97.5027 423.518L100.905 360.236C100.905 360.236 212.5 337.1 212.5 270.415C212.5 203.731 30.1374 195.565 11.7651 226.186C11.5814 226.492 11.3988 226.798 11.2173 227.104C-11.4753 265.374 1.33666 315.059 39.9517 337.161C53.1559 344.718 68.8993 351.185 87.2959 354.792L86 422.018" fill="#7AFF97"/>
<path d="M25.1915 418.157L25.0626 420.153L934.942 478.912L935.071 476.916L25.1915 418.157Z" fill="#CCCCCC"/>
</g>
<defs>
<clipPath id="clip0_1_45">
<rect width="998.5" height="479.016" fill="white"/>
</clipPath>
</defs>
</svg>
